<svg xmlns="http://www.w3.org/2000/svg" xmlns:xlink="http://www.w3.org/1999/xlink" width="128" height="128" viewBox="0 0 128 128"><defs><clipPath id="b"><rect width="128" height="128"/></clipPath></defs><g id="a" clip-path="url(#b)"><path d="M60,387C8.8,387-4,374.2-4,323s12.8-64,64-64,64,12.8,64,64S111.2,387,60,387Z" transform="translate(4 -259)"/><path d="M60,387C8.8,387-4,374.2-4,323s12.8-64,64-64,64,12.8,64,64S111.2,387,60,387Z" transform="translate(4 -259)" fill="#41b883"/><g transform="translate(17.667 32.95)"><path d="M74.133,0H92.667L46.333,79.925,0,0H35.445L46.333,18.533,56.99,0Z" fill="#41b883"/><path d="M0,0,46.333,79.925,92.667,0H74.133l-27.8,47.955L18.3,0Z" fill="#fff"/><path d="M50.56,0,78.592,48.187,106.392,0H89.248L78.592,18.533,67.7,0Z" transform="translate(-32.258)" fill="#35495e"/></g></g></svg>